<svg xmlns="http://www.w3.org/2000/svg" viewBox="0 0 512 512">
  <rect width="512" height="512" rx="100" fill="#2563eb"/>
  <path d="M368 144H144C126.3 144 112 158.3 112 176V336C112 353.7 126.3 368 144 368H368C385.7 368 400 353.7 400 336V176C400 158.3 385.7 144 368 144Z" fill="white" fill-opacity="0.2"/>
  <path d="M352 192H160C151.2 192 144 199.2 144 208V304C144 312.8 151.2 320 160 320H352C360.8 320 368 312.8 368 304V208C368 199.2 360.8 192 352 192Z" fill="white"/>
  <circle cx="256" cy="256" r="48" fill="#2563eb"/>
  <path d="M256 224V288M224 256H288" stroke="white" stroke-width="16" stroke-linecap="round"/>
</svg>
